<?xml version="1.0" encoding="UTF-8" standalone="no"?>
<!DOCTYPE svg PUBLIC "-//W3C//DTD SVG 1.1//EN" "http://www.w3.org/Graphics/SVG/1.1/DTD/svg11.dtd">
<svg width="100%" height="100%" viewBox="0 0 1107 251" version="1.1" xmlns="http://www.w3.org/2000/svg" xmlns:xlink="http://www.w3.org/1999/xlink" xml:space="preserve" xmlns:serif="http://www.serif.com/" style="fill-rule:evenodd;clip-rule:evenodd;stroke-linejoin:round;stroke-miterlimit:2;">
    <g transform="matrix(1.0027,0,0,3.68833,-85.8423,-11678.2)">
        <path d="M420.619,3166.69L420.626,3166.69L420.626,3173.72L449.714,3173.72L449.714,3180.49L449.673,3180.49C449.714,3180.65 449.714,3180.81 449.714,3180.97C449.714,3183.23 447.263,3185.34 443.024,3187.1C471.489,3190.68 491.269,3198.52 491.269,3207.61L491.269,3234.1L466.336,3234.1L466.336,3207.61C466.336,3199.72 445.102,3193.18 417.302,3191.98L417.26,3191.98C414.31,3191.86 411.235,3191.79 408.16,3191.79C405.085,3191.79 402.01,3191.86 399.06,3191.98L399.018,3191.98C371.218,3193.18 349.984,3199.72 349.984,3207.61L349.984,3234.1L325.051,3234.1L325.051,3207.61C325.051,3198.52 344.79,3190.68 373.296,3187.1C369.057,3185.34 366.606,3183.23 366.606,3180.97C366.606,3180.81 366.606,3180.65 366.647,3180.49L366.606,3180.49L366.606,3173.72L395.694,3173.72L395.694,3166.69L395.702,3166.69L395.702,3166.29L420.619,3166.29L420.619,3166.69ZM408.492,3185.01C417.676,3185.01 425.114,3182.99 425.114,3180.49L391.871,3180.49C391.871,3182.95 399.143,3184.97 408.16,3185.01L408.492,3185.01ZM428.938,3214.22C428.938,3217.34 419.634,3219.87 408.16,3219.87C396.687,3219.87 387.383,3217.34 387.383,3214.22C387.383,3211.1 396.687,3208.57 408.16,3208.57C419.634,3208.57 428.938,3211.1 428.938,3214.22Z"/>
    </g>
    <g transform="matrix(1.0027,0,0,3.68833,-85.8423,-11678.2)">
        <path d="M395.694,3173.72L395.694,3166.69L395.702,3166.69L395.702,3166.29L420.619,3166.29L420.619,3166.69L420.626,3166.69L420.626,3173.72L449.714,3173.72L449.714,3180.49L449.673,3180.49C449.714,3180.65 449.714,3180.81 449.714,3180.97C449.714,3182.8 448.108,3184.53 445.249,3186.06L445.128,3186.12C444.487,3186.46 443.784,3186.78 443.024,3187.1C471.489,3190.68 491.269,3198.52 491.269,3207.61L491.269,3234.1L466.336,3234.1L466.336,3207.61C466.336,3199.9 446.082,3193.49 419.238,3192.07L419.155,3192.07C418.541,3192.04 417.923,3192.01 417.302,3191.98L417.26,3191.98C414.31,3191.86 411.235,3191.79 408.16,3191.79C405.085,3191.79 402.01,3191.86 399.06,3191.98L399.018,3191.98C398.397,3192.01 397.779,3192.04 397.165,3192.07L397.082,3192.07C370.238,3193.49 349.984,3199.9 349.984,3207.61L349.984,3234.1L325.051,3234.1L325.051,3207.61C325.051,3198.52 344.79,3190.68 373.296,3187.1C372.536,3186.78 371.833,3186.46 371.192,3186.12L371.071,3186.06C368.212,3184.53 366.606,3182.8 366.606,3180.97C366.606,3180.81 366.606,3180.65 366.647,3180.49L366.606,3180.49L366.606,3173.72L395.694,3173.72ZM428.938,3214.22C428.938,3217.34 419.634,3219.87 408.16,3219.87C396.687,3219.87 387.383,3217.34 387.383,3214.22C387.383,3211.1 396.687,3208.57 408.16,3208.57C419.634,3208.57 428.938,3211.1 428.938,3214.22ZM425.114,3180.49L391.871,3180.49C391.871,3182.95 399.143,3184.97 408.16,3185.01L408.492,3185.01C417.676,3185.01 425.114,3182.99 425.114,3180.49Z"/>
    </g>
    <g transform="matrix(4.16667,0,0,4.16667,-85.381,-3167.47)">
        <path d="M276.068,793.212L256.068,793.212C254.728,793.212 253.416,792.944 252.204,792.436C251.604,792.184 251.028,791.874 250.485,791.509C249.954,791.152 249.455,790.742 248.997,790.283C247.121,788.408 246.068,785.865 246.068,783.212L246.068,770.198C246.068,767.55 247.12,765.01 248.992,763.137C250.865,761.264 253.405,760.212 256.053,760.212L286.068,760.212L286.068,766.212L256.053,766.212C255.519,766.212 254.997,766.319 254.513,766.522C254.274,766.622 254.044,766.746 253.828,766.891C253.617,767.034 253.418,767.197 253.235,767.38C252.488,768.127 252.068,769.141 252.068,770.198L252.068,783.212C252.068,784.273 252.489,785.291 253.239,786.041C253.989,786.791 255.007,787.212 256.068,787.212L276.068,787.212C277.407,787.212 278.719,787.481 279.931,787.989C280.532,788.24 281.108,788.551 281.651,788.916C282.181,789.273 282.68,789.683 283.139,790.141C285.014,792.017 286.068,794.56 286.068,797.212L286.068,810.227C286.068,812.875 285.016,815.415 283.143,817.288C281.27,819.16 278.731,820.212 276.082,820.212L246.068,820.212L246.068,814.212L276.082,814.212C276.616,814.212 277.139,814.105 277.622,813.903C277.861,813.803 278.091,813.679 278.307,813.533C278.519,813.391 278.718,813.228 278.9,813.045C279.648,812.298 280.068,811.284 280.068,810.227L280.068,797.212C280.068,796.151 279.646,795.134 278.896,794.384C278.146,793.634 277.129,793.212 276.068,793.212Z"/>
    </g>
    <g transform="matrix(4.16667,0,0,4.16667,191.667,250)">
        <path d="M0,-60L0,0L-6,0L-6,-26.29L-40,-26.29L-40,0L-46,0L-46,-60L-40,-60L-40,-32.29L-6,-32.29L-6,-60L0,-60Z" style="fill-rule:nonzero;"/>
    </g>
    <g transform="matrix(4.16667,0,0,4.16667,747.498,41.7496)">
        <path d="M0,40C0,42.21 1.79,44 4,44L34,44L34,50L4,50C-0.1,50 -3.63,47.53 -5.16,44C-5.7,42.78 -6,41.42 -6,40L-6,0C-6,-1.42 -5.7,-2.78 -5.16,-4C-3.62,-7.53 -0.1,-10 4,-10L34,-10L34,-4L4,-4C1.79,-4 0,-2.21 0,0L0,40Z" style="fill-rule:nonzero;"/>
    </g>
    <g transform="matrix(0,-4.16667,-4.16667,0,812.99,104.25)">
        <path d="M-5,-5C-7.761,-5 -10,-2.761 -10,0C-10,2.761 -7.761,5 -5,5C-2.239,5 0,2.761 0,0C0,-2.761 -2.239,-5 -5,-5" style="fill-rule:nonzero;"/>
    </g>
    <g transform="matrix(4.16667,0,0,4.16667,546.761,25.0417)">
        <path d="M0,48L-16,48L-16,0L0,0C13.25,0 24,10.75 24,24C24,37.26 13.25,48 0,48M1.04,-5.97C0.7,-5.99 0.35,-6 0,-6L-22,-6L-22,54L0,54C0.35,54 0.7,53.99 1.04,53.97C17.13,53.43 30,40.22 30,24C30,7.78 17.13,-5.43 1.04,-5.97" style="fill-rule:nonzero;"/>
    </g>
</svg>
